STARTFONT 2.1
FONT -FontForge-DejaVu Sans-Bold-R-Normal-Sans--52-500-75-75-P-383-ISO10646-1
SIZE 50 75 75
FONTBOUNDINGBOX 159 83 -56 -22
COMMENT "Generated by fontforge, http://fontforge.sourceforge.net"
COMMENT "Copyright (c) 2003 by Bitstream, Inc. All Rights Reserved."
COMMENT "Copyright (c) 2006 by Tavmjong Bah. All Rights Reserved."
COMMENT "DejaVu changes are in public domain"
STARTPROPERTIES 40
FOUNDRY "FontForge"
FAMILY_NAME "DejaVu Sans"
WEIGHT_NAME "Bold"
SLANT "R"
SETWIDTH_NAME "Normal"
ADD_STYLE_NAME "Sans"
PIXEL_SIZE 52
POINT_SIZE 500
RESOLUTION_X 75
RESOLUTION_Y 75
SPACING "P"
AVERAGE_WIDTH 383
CHARSET_REGISTRY "ISO10646"
CHARSET_ENCODING "1"
FONTNAME_REGISTRY ""
CHARSET_COLLECTIONS "ASCII ISOLatin1Encoding ISO8859-2 ISO8859-5 ISO8859-7 ISO8859-9 ISO8859-8 ISO8859-6 ISO8859-4 ISO10646-1"
FONT_NAME "DejaVuSans-Bold"
FACE_NAME "DejaVu Sans Bold"
COPYRIGHT "Copyright (c) 2003 by Bitstream, Inc. All Rights Reserved."
FONT_VERSION "2.37"
FONT_ASCENT 40
FONT_DESCENT 12
UNDERLINE_POSITION -4
UNDERLINE_THICKNESS 3
X_HEIGHT 27
CAP_HEIGHT 37
RAW_ASCENT 759
RAW_DESCENT 240
NORM_SPACE 18
RELATIVE_WEIGHT 70
RELATIVE_SETWIDTH 50
SUPERSCRIPT_X 0
SUPERSCRIPT_Y 24
SUPERSCRIPT_SIZE 36
SUBSCRIPT_X 0
SUBSCRIPT_Y 7
SUBSCRIPT_SIZE 36
FIGURE_WIDTH 36
AVG_LOWERCASE_WIDTH 357
AVG_UPPERCASE_WIDTH 422
ENDPROPERTIES
CHARS 6196
STARTCHAR zero
ENCODING 48
SWIDTH 695 0
DWIDTH 36 0
BBX 31 40 2 -1
BITMAP
001FF000
007FFE00
01FFFF00
03FFFF80
07FFFFC0
0FFFFFE0
1FFFFFF0
1FF83FF0
3FF01FF8
3FE00FF8
7FE00FFC
7FE00FFC
7FE00FFC
7FC007FC
FFC007FE
FFC007FE
FFC007FE
FFC007FE
FFC007FE
FFC007FE
FFC007FE
FFC007FE
FFC007FE
FFC007FE
FFC007FE
FFC007FE
7FC007FC
7FE00FFC
7FE00FFC
7FE00FFC
3FE01FF8
3FF01FF8
1FF83FF0
1FFFFFF0
0FFFFFE0
07FFFFC0
03FFFF80
01FFFF00
00FFFC00
001FF000
ENDCHAR
STARTCHAR one
ENCODING 49
SWIDTH 695 0
DWIDTH 36 0
BBX 27 38 6 0
BITMAP
01FFC000
3FFFC000
FFFFC000
FFFFC000
FFFFC000
FFFFC000
FFFFC000
FE7FC000
C07FC000
007FC000
007FC000
007FC000
007FC000
007FC000
007FC000
007FC000
007FC000
007FC000
007FC000
007FC000
007FC000
007FC000
007FC000
007FC000
007FC000
007FC000
007FC000
007FC000
007FC000
007FC000
007FC000
FFFFFFE0
FFFFFFE0
FFFFFFE0
FFFFFFE0
FFFFFFE0
FFFFFFE0
FFFFFFE0
ENDCHAR
STARTCHAR two
ENCODING 50
SWIDTH 695 0
DWIDTH 36 0
BBX 28 39 4 0
BITMAP
01FFC000
3FFFFC00
FFFFFE00
FFFFFF80
FFFFFFC0
FFFFFFC0
FFFFFFE0
FE03FFE0
F000FFF0
80007FF0
00003FF0
00003FF0
00003FF0
00003FF0
00003FF0
00007FE0
00007FE0
0000FFC0
0001FFC0
0003FF80
0007FF00
000FFE00
003FFC00
007FF800
00FFF000
01FFC000
03FF8000
07FF0000
0FFE0000
1FFC0000
3FF80000
7FF00000
FFFFFFF0
FFFFFFF0
FFFFFFF0
FFFFFFF0
FFFFFFF0
FFFFFFF0
FFFFFFF0
ENDCHAR
STARTCHAR three
ENCODING 51
SWIDTH 695 0
DWIDTH 36 0
BBX 29 40 3 -1
BITMAP
00FFE000
0FFFFE00
3FFFFF80
3FFFFFC0
3FFFFFE0
3FFFFFE0
3FFFFFF0
3E01FFF0
20007FF0
00003FF0
00003FF0
00003FF0
00003FE0
00007FE0
0001FFC0
01FFFF80
01FFFF00
01FFF800
01FFFF00
01FFFF80
01FFFFC0
01FFFFE0
0001FFF0
00007FF0
00003FF8
00001FF8
00001FF8
00001FF8
00001FF8
00001FF8
80003FF8
E0007FF0
FE01FFF0
FFFFFFF0
FFFFFFE0
FFFFFFC0
FFFFFF80
FFFFFF00
3FFFFC00
03FFC000
ENDCHAR
STARTCHAR four
ENCODING 52
SWIDTH 695 0
DWIDTH 36 0
BBX 31 38 2 0
BITMAP
0001FFC0
0003FFC0
0007FFC0
0007FFC0
000FFFC0
001FFFC0
001FFFC0
003FFFC0
007FFFC0
007F7FC0
00FE7FC0
01FE7FC0
01FC7FC0
03F87FC0
07F87FC0
07F07FC0
0FE07FC0
1FE07FC0
1FC07FC0
3F807FC0
7F807FC0
7F007FC0
FE007FC0
FE007FC0
FFFFFFFE
FFFFFFFE
FFFFFFFE
FFFFFFFE
FFFFFFFE
FFFFFFFE
FFFFFFFE
00007FC0
00007FC0
00007FC0
00007FC0
00007FC0
00007FC0
00007FC0
ENDCHAR
STARTCHAR five
ENCODING 53
SWIDTH 695 0
DWIDTH 36 0
BBX 29 39 4 -1
BITMAP
3FFFFFC0
3FFFFFC0
3FFFFFC0
3FFFFFC0
3FFFFFC0
3FFFFFC0
3FFFFFC0
3FC00000
3FC00000
3FC00000
3FC00000
3FC00000
3FC00000
3FDFE000
3FFFFC00
3FFFFF00
3FFFFF80
3FFFFFC0
3FFFFFE0
3FFFFFF0
3E01FFF0
20007FF0
00003FF8
00003FF8
00001FF8
00001FF8
00001FF8
00001FF8
80003FF8
E0003FF8
F8007FF0
FF01FFF0
FFFFFFE0
FFFFFFE0
FFFFFFC0
FFFFFF80
7FFFFE00
0FFFFC00
00FFC000
ENDCHAR
STARTCHAR six
ENCODING 54
SWIDTH 695 0
DWIDTH 36 0
BBX 30 40 3 -1
BITMAP
0007FE00
003FFFE0
00FFFFF0
01FFFFF0
03FFFFF0
07FFFFF0
0FFFFFF0
1FFE01F0
1FF80010
3FF00000
3FE00000
7FC00000
7FC00000
7FC00000
7F87F800
FF9FFF00
FFFFFF80
FFFFFFC0
FFFFFFE0
FFFFFFF0
FFFFFFF8
FFF83FF8
FFE00FF8
FFE00FFC
FFC007FC
FFC007FC
FFC007FC
7FC007FC
7FC007FC
7FC007FC
3FE00FF8
3FE00FF8
3FF83FF8
1FFFFFF0
0FFFFFF0
0FFFFFE0
07FFFFC0
01FFFF80
00FFFE00
001FF000
ENDCHAR
STARTCHAR seven
ENCODING 55
SWIDTH 695 0
DWIDTH 36 0
BBX 29 38 3 0
BITMAP
FFFFFFF8
FFFFFFF8
FFFFFFF8
FFFFFFF8
FFFFFFF8
FFFFFFF8
FFFFFFF8
00003FF0
00003FF0
00007FE0
00007FE0
0000FFC0
0000FFC0
0000FF80
0001FF80
0001FF00
0003FF00
0003FE00
0007FE00
0007FE00
000FFC00
000FFC00
001FF800
001FF800
001FF000
003FF000
003FE000
007FE000
007FC000
00FFC000
00FF8000
01FF8000
01FF8000
03FF0000
03FF0000
07FE0000
07FE0000
07FC0000
ENDCHAR
STARTCHAR eight
ENCODING 56
SWIDTH 695 0
DWIDTH 36 0
BBX 30 40 3 -1
BITMAP
003FF800
03FFFF00
07FFFF80
1FFFFFE0
1FFFFFE0
3FFFFFF0
7FFFFFF0
7FF03FF8
7FE01FF8
7FC00FF8
7FC00FF8
7FC00FF8
7FC00FF8
3FE01FF0
3FF03FF0
1FFFFFE0
0FFFFFC0
03FFFF00
01FFFE00
07FFFF80
1FFFFFE0
3FFFFFF0
7FF03FF0
7FE00FF8
7FC00FF8
FF8007FC
FF8007FC
FF8007FC
FF8007FC
FF8007FC
FFC00FFC
FFC00FFC
7FF03FF8
7FFFFFF8
3FFFFFF0
3FFFFFF0
1FFFFFE0
0FFFFFC0
03FFFF00
003FF000
ENDCHAR
STARTCHAR nine
ENCODING 57
SWIDTH 695 0
DWIDTH 36 0
BBX 30 40 3 -1
BITMAP
003FE000
01FFFC00
07FFFE00
0FFFFF00
1FFFFF80
3FFFFFC0
3FFFFFE0
7FF07FF0
7FC01FF0
FFC01FF0
FF800FF8
FF800FF8
FF800FF8
FF800FF8
FF800FFC
FF800FFC
FFC01FFC
FFC01FFC
7FF07FFC
7FFFFFFC
3FFFFFFC
1FFFFFFC
1FFFFFFC
07FFFFFC
03FFE7FC
007F87F8
00000FF8
00000FF8
00000FF8
00001FF0
00003FF0
10007FE0
1E01FFE0
1FFFFFC0
1FFFFF80
1FFFFF00
1FFFFE00
1FFFFC00
0FFFF000
00FF8000
ENDCHAR
STARTCHAR colon
ENCODING 58
SWIDTH 399 0
DWIDTH 21 0
BBX 9 28 6 0
BITMAP
FF80
FF80
FF80
FF80
FF80
FF80
FF80
FF80
FF80
FF80
0000
0000
0000
0000
0000
0000
0000
0000
FF80
FF80
FF80
FF80
FF80
FF80
FF80
FF80
FF80
FF80
ENDCHAR
ENDFONT
